<?xml version="1.0" standalone="no"?>
<!DOCTYPE svg PUBLIC "-//W3C//DTD SVG 20010904//EN"
 "http://www.w3.org/TR/2001/REC-SVG-20010904/DTD/svg10.dtd">
<svg version="1.0" xmlns="http://www.w3.org/2000/svg"
 width="706.000000pt" height="706.000000pt" viewBox="0 0 706.000000 706.000000"
 preserveAspectRatio="xMidYMid meet">
<metadata>
Created by potrace 1.14, written by Peter Selinger 2001-2017
</metadata>
<g transform="translate(0.000000,706.000000) scale(0.100000,-0.100000)"
fill="#000000" stroke="none">
<path d="M3542 6498 c-40 -73 -91 -167 -113 -208 -23 -41 -179 -327 -347 -635
-167 -308 -317 -582 -332 -610 -15 -27 -41 -75 -58 -105 -16 -30 -68 -125
-114 -210 -47 -85 -106 -195 -133 -245 -26 -49 -51 -94 -55 -100 -4 -5 -26
-46 -50 -90 -72 -135 -102 -189 -120 -220 -34 -57 -33 -68 13 -151 24 -43 61
-110 82 -149 21 -38 46 -83 55 -100 10 -16 29 -50 42 -75 14 -25 34 -61 45
-80 29 -52 75 -136 118 -215 21 -38 41 -74 45 -80 4 -5 71 -126 149 -268 78
-142 150 -272 160 -290 31 -55 217 -389 248 -447 30 -54 261 -471 310 -560 14
-25 41 -74 61 -110 19 -36 38 -69 42 -75 4 -5 28 -49 54 -96 25 -48 66 -122
91 -165 l45 -79 -965 -5 -964 -5 67 -92 c37 -51 108 -149 157 -219 50 -69 95
-131 100 -138 6 -6 48 -64 94 -128 l84 -118 1344 0 1344 0 -17 32 c-9 17 -54
99 -101 182 -47 83 -97 171 -111 196 -50 90 -427 758 -490 870 -36 63 -75 134
-87 157 -12 23 -26 48 -32 55 -6 7 -24 38 -40 68 -16 30 -59 107 -95 170 -63
112 -91 161 -144 258 -15 26 -53 92 -84 147 -31 55 -72 127 -90 160 -46 82
-62 111 -99 173 -17 29 -31 55 -31 57 0 3 -20 39 -45 81 -25 41 -45 77 -45 79
0 2 -24 45 -54 97 -29 51 -66 116 -81 143 -15 28 -57 102 -93 165 -87 154 -95
168 -139 247 -20 37 -58 105 -85 151 -26 46 -48 88 -48 93 0 5 28 62 61 127
34 64 98 187 142 272 44 85 107 207 140 270 33 63 98 189 144 280 47 91 89
169 93 173 4 5 14 -4 22 -20 8 -15 62 -113 120 -218 58 -104 121 -219 140
-255 19 -36 44 -81 55 -100 11 -19 39 -71 63 -115 24 -44 85 -154 135 -245 50
-91 108 -195 128 -232 21 -38 53 -98 74 -135 20 -38 64 -117 98 -178 34 -60
85 -154 114 -207 29 -54 56 -100 61 -103 4 -3 29 30 54 72 61 103 44 75 217
362 121 200 150 256 142 270 -5 9 -29 52 -53 96 -24 44 -54 100 -68 125 -13
25 -40 74 -60 110 -19 36 -82 150 -139 253 -57 104 -103 190 -103 191 0 2 -52
97 -115 211 -63 115 -115 210 -115 212 0 2 -20 38 -44 81 -24 42 -63 113 -86
157 -24 44 -46 85 -50 90 -4 6 -33 60 -65 120 -32 61 -61 115 -65 120 -4 6
-26 46 -50 90 -24 44 -70 130 -103 190 -98 180 -113 207 -152 280 -21 39 -41
75 -45 80 -4 6 -29 51 -55 100 -26 50 -49 91 -50 93 -1 1 -34 -57 -73 -130z"/>
<path d="M5253 2962 l-210 -349 24 -44 c14 -24 44 -78 67 -119 24 -41 54 -95
68 -120 14 -25 89 -160 168 -300 79 -140 154 -275 168 -300 13 -25 28 -49 32
-55 4 -5 21 -35 37 -65 35 -63 62 -112 148 -265 34 -60 79 -141 100 -180 21
-38 41 -74 45 -80 8 -10 229 -405 286 -509 l32 -59 403 1 c222 0 412 1 422 1
15 1 14 5 -8 41 -14 22 -25 41 -25 43 0 4 -70 126 -129 225 -17 29 -31 54 -31
56 0 2 -36 65 -80 141 -44 76 -80 138 -80 140 0 1 -45 80 -100 175 -55 95
-100 174 -100 176 0 1 -27 48 -60 104 -33 56 -60 103 -60 106 0 2 -18 33 -40
69 -22 36 -40 68 -40 71 0 3 -8 18 -18 32 -11 15 -32 52 -49 82 -16 30 -66
118 -110 195 -44 77 -90 156 -101 175 -11 19 -38 67 -61 107 -22 39 -50 89
-62 110 -12 21 -56 99 -99 173 -112 195 -120 208 -160 280 -40 73 -161 283
-165 288 -1 2 -97 -154 -212 -346z"/>
<path d="M1410 2953 c-58 -103 -120 -214 -138 -247 -18 -34 -45 -81 -60 -106
-14 -25 -34 -61 -44 -80 -10 -19 -23 -42 -28 -50 -5 -8 -40 -71 -79 -140 -38
-69 -139 -250 -225 -403 -86 -153 -156 -280 -156 -281 0 -2 -22 -41 -49 -88
-26 -46 -63 -111 -81 -144 -41 -72 -39 -68 -187 -334 -66 -118 -134 -240 -151
-270 -16 -30 -71 -127 -120 -215 l-91 -160 417 -3 c229 -1 419 1 423 5 4 5 43
73 86 153 44 80 108 197 143 260 34 63 81 149 103 190 35 66 240 444 319 590
17 30 46 84 66 120 19 36 38 70 42 75 4 6 26 46 49 90 23 44 53 100 67 125 14
25 44 79 66 120 43 79 70 129 120 221 l31 56 -183 304 c-100 167 -194 324
-208 349 -13 25 -25 46 -26 47 -1 1 -49 -82 -106 -184z"/>
</g>
</svg>
